<?xml version="1.0" encoding="utf-8"?>
<!-- Generator: Adobe Illustrator 25.2.3, SVG Export Plug-In . SVG Version: 6.00 Build 0)  -->
<svg version="1.1" id="Capa_1" xmlns="http://www.w3.org/2000/svg" xmlns:xlink="http://www.w3.org/1999/xlink" x="0px" y="0px"
	 viewBox="0 0 25.9 25.9" style="enable-background:new 0 0 25.9 25.9;" xml:space="preserve">
<style type="text/css">
	.st0{fill:#5F5E5E;}
</style>
<g>
	<g id="c118_triangle">
		<path class="st0" d="M25.4,6.6h-2l-10,12.6c-0.1,0.1-0.3,0.2-0.4,0.2c-0.2,0-0.3-0.1-0.4-0.2L2.6,6.6h-2c-0.2,0-0.4,0.1-0.5,0.3
			C0,7,0,7.3,0.1,7.4l12.4,15.8c0.1,0.1,0.3,0.2,0.4,0.2c0.2,0,0.3-0.1,0.4-0.2L25.8,7.4C25.9,7.3,26,7,25.9,6.9
			C25.8,6.7,25.6,6.6,25.4,6.6z"/>
	</g>
	<g id="Capa_1_184_">
	</g>
</g>
</svg>
